<?xml version="1.0" encoding="UTF-8" standalone="no"?>
<svg
   width="199.74217pt"
   height="199.7383pt"
   viewBox="0 0 199.74217 199.7383"
   version="1.1"
   id="svg29"
   xmlns="http://www.w3.org/2000/svg"
   xmlnsSvg="http://www.w3.org/2000/svg">
  <defs
     id="defs33" />
  <g
     id="mtg-black"
     transform="translate(-265.89454,-331.7539)">
    <path
       style="fill:#a6a197;fill-opacity:1;fill-rule:evenodd;stroke:none"
       d="m 346.15625,503.16406 c -2.42969,-0.48047 -11.04688,-1.02734 -13.38672,-15.1875 v -21.46875 c 0,-15.89453 -25.21094,-12.64062 -34.6875,-21.375 -7.77734,-7.17187 -6.74609,-35.6875 15.75,-64.5 0.80859,3.55469 0.55078,6.83985 1.0625,9.95703 7.8125,-1.14843 19.39844,1.50782 30.53125,3.85157 -5.67578,-3.80079 -14.05078,-7.75 -21.60156,-10.94922 0.24219,-2.94922 0.23047,-5.83203 -0.375,-11.625 22.07812,-14.16797 60.10156,-17.05078 85.65234,-0.375 -1.33984,1.82812 -8.05078,6.61328 -9.15234,10.875 2.34765,-0.008 9.42578,-3.85157 15.375,-7.125 5.49609,6.03906 22.35156,19.97656 22.51172,50.5625 0.0976,18.69531 -8.375,23.93359 -22.4375,26.57422 -10.67578,2.00781 -16.28516,6.98046 -16.57422,12.86328 l -1.125,22.875 c -0.37891,7.71484 -2.72266,11.77343 -12.75,14.625 -0.25,-8.03907 -0.5,-22.71485 -2.4375,-24 -2.16016,2.17578 -2.98828,13.3164 -4.08594,19.72265 -3.41406,0.26563 -6.97266,-0.0703 -10.16406,-0.59765 -0.23828,-5.13282 -0.80469,-18.65235 -3,-19.875 -2.26172,2.66015 -1.29688,16.80078 -2.0625,23.0625 -3.31641,0.9375 -6.03516,1.05468 -9.5,1.01953 -1.19141,-6.39063 -3.36328,-20.05469 -5.8125,-21.1875 -2.29297,2.35156 -1.53516,13.47265 -1.73047,22.27734 z m 9.02734,-48.89453 c 0.23828,-7.40234 1.82422,-12.92578 6.5625,-17.25 -0.44922,6.1875 0.0937,13.71484 0.75,18.26172 1.07813,5.32812 2.55078,6.32422 4.72657,0.3125 1.33203,-4.08203 1.7539,-11.96484 1.64843,-18.19922 4.98828,4.5 6.22657,11.39844 6.1875,16.875 v 13.5 c -8.875,-3.30078 -12.05078,-2.25 -19.875,0 z m -28.875,-45.19141 c -16.72265,0.88672 -20.375,17.92579 -18.25,25.5 4.16407,6.87891 37.44922,6.55079 42.51172,1.42579 3.0625,-4.9375 -1.82812,-28.11329 -24.26172,-26.92579 z m 75.74219,0.88672 c -8.50781,-0.26953 -24.91797,5.91407 -22.30469,25.36328 7.71094,9.60938 37.32032,6.54297 42.92969,-0.98828 1.67578,-8.35156 -0.55859,-23.74218 -20.625,-24.375"
       id="path4" />
    <path
       style="fill:#a6a197;fill-opacity:1;fill-rule:evenodd;stroke:none"
       d="m 365.76562,331.75391 c 55.15625,0 99.8711,44.71093 99.8711,99.86718 0,55.16016 -44.71485,99.8711 -99.8711,99.8711 -55.15625,0 -99.87109,-44.71094 -99.87109,-99.8711 0,-55.15625 44.71484,-99.86718 99.87109,-99.86718 z m 0,10.09375 c 49.58204,0 89.77344,40.19531 89.77344,89.77343 0,49.58203 -40.1914,89.77735 -89.77344,89.77735 -49.58203,0 -89.77343,-40.19532 -89.77343,-89.77735 0,-49.57812 40.1914,-89.77343 89.77343,-89.77343"
       id="path2" />
  </g>
</svg>
