<?xml version="1.0" encoding="UTF-8" standalone="no"?>
<svg
   width="80pt"
   height="80pt"
   viewBox="0 0 199.73827 199.73827"
   version="1.1"
   id="svg29"
   xmlns="http://www.w3.org/2000/svg"
   xmlnsSvg="http://www.w3.org/2000/svg">
  <defs
     id="defs33" />
  <g
     id="mtg-white"
     transform="translate(-150.58205,-0.5078149)">
    <path
       style="fill:curent;fill-opacity:1;fill-rule:evenodd;stroke:none"
       d="m 250.45312,73.410156 c 14.89454,0 26.96875,12.074219 26.96875,26.968754 0,14.89062 -12.07421,26.96875 -26.96875,26.96875 -14.89453,0 -26.97265,-12.07813 -26.97265,-26.96875 0,-14.894535 12.07812,-26.968754 26.97265,-26.968754"
       id="path20" />
    <path
       style="fill:current;fill-opacity:1;fill-rule:evenodd;stroke:none"
       d="m 236.59375,136.98828 c -0.30469,4.69531 -0.75,8.94141 0.17969,14.22266 2.00781,5.25 4.64843,6.98437 9.93359,9.72265 0.082,5.52344 -1.5625,10.98047 -4.25,17.04688 16.48828,-5.44141 23.94922,-15.85156 26.01172,-25.41016 -6.00391,-4.16406 -8.60547,-5.54297 -8.40625,-12.96875 0.66797,-3.77344 3.00391,-5.03515 6.44531,-4.00781 3.09375,3.54687 5.76563,6.875 10.14453,9.96875 5.125,2.31641 8.21875,1.68359 13.89844,-0.0977 3.94922,3.86328 6.62891,8.89844 8.99219,15.09766 7.87109,-15.47656 5.83203,-28.12109 0.5664,-36.35937 -7.19531,1.27343 -12.11328,1.48828 -15.10156,-3.28516 -1.65625,-2.92578 -0.80469,-6.58203 1.55078,-7.09375 4.69141,0.32031 8.9336,0.78516 14.21875,-0.125 5.26172,-1.98438 7.00391,-4.61719 9.76172,-9.89453 5.52344,-0.0625 10.97656,1.60156 17.03125,4.3125 -5.375,-16.507815 -15.76172,-24.003909 -25.30859,-26.105471 -4.1875,5.988281 -5.57422,8.582031 -13,8.351562 -2.65235,-0.167968 -5.48828,-2.835937 -3.89844,-6.082031 3.5625,-3.074219 6.90234,-5.730469 10.01563,-10.097656 2.33984,-5.113281 1.72656,-8.210938 -0.0312,-13.898438 3.88281,-3.929687 8.92968,-6.585937 15.14062,-8.921875 -15.4375,-7.941406 -28.09375,-5.964843 -36.35547,-0.734375 1.23828,7.199219 2.41797,11.707032 -3.13281,15.570313 -2.22656,1.371094 -6.25391,0.660156 -6.75391,-2.1875 0.38672,-4.6875 0.41797,-9.074219 -0.41797,-14.371094 -1.91406,-5.285156 -4.51953,-7.066406 -9.75781,-9.894531 0.0156,-5.527344 1.75391,-10.957031 4.54688,-16.972656 -16.57813,5.148437 -24.22266,15.425781 -26.45313,24.945312 5.92969,4.269531 8.84375,5.863281 8.51172,13.285156 -0.0977,2.742188 -3.58594,5.484375 -6.79687,3.933594 -3.09375,-3.542969 -5.61719,-7.246094 -10,-10.339844 -5.1211,-2.3125 -8.21875,-1.683593 -13.89844,0.101563 -3.94922,-3.863281 -6.62891,-8.894531 -8.9961,-15.09375 -7.86718,15.476562 -5.82421,28.121094 -0.55468,36.355469 7.19531,-0.824219 11.55078,-1.75 15.0664,2.835937 1.56641,2.046875 1.19922,7.324219 -1.1914,7.914063 -4.69532,-0.289063 -8.94141,-0.722657 -14.21875,0.222656 -5.2461,2.023437 -6.97266,4.667969 -9.69141,9.960937 -5.52344,0.101563 -10.98828,-1.527343 -17.0625,-4.195312 5.48828,16.472661 15.92578,23.898441 25.48828,25.933591 4.14844,-6.01953 5.51563,-8.62109 12.94531,-8.44531 3.4375,0.89453 4.35157,3.89063 3.6875,6.29688 -3.53906,3.09375 -6.71484,5.32031 -9.95312,10.15625 -2.01172,4.89843 -1.28516,8.5664 0.10937,13.89843 -3.78125,4.17969 -8.8125,6.86328 -15.08593,9.00781 15.48437,7.85547 28.1289,5.80079 36.35937,0.52344 -1.46875,-6.96484 -1.91406,-10.00781 3.26953,-15.10156 2.27735,-1.67188 6.41016,-0.54688 6.44141,2.01953 z M 250.45312,67.6875 c 18.05079,0 32.6875,14.636719 32.6875,32.69141 0,18.05078 -14.63671,32.6875 -32.6875,32.6875 -18.05468,0 -32.6914,-14.63672 -32.6914,-32.6875 0,-18.054691 14.63672,-32.69141 32.6914,-32.69141"
       id="path22" />
    <path
       style="fill:current;fill-opacity:1;fill-rule:evenodd;stroke:none"
       d="m 250.45312,0.507813 c 55.15625,0 99.86719,44.710937 99.86719,99.871097 0,55.15625 -44.71094,99.86718 -99.86719,99.86718 -55.16015,0 -99.87109,-44.71093 -99.87109,-99.86718 0,-55.16016 44.71094,-99.871097 99.87109,-99.871097 z m 0,10.097656 c 49.57813,0 89.77344,40.191406 89.77344,89.773441 0,49.57812 -40.19531,89.77343 -89.77344,89.77343 -49.58203,0 -89.77343,-40.19531 -89.77343,-89.77343 0,-49.582035 40.1914,-89.773441 89.77343,-89.773441"
       id="path18" />
  </g>
</svg>
