<?xml version="1.0" encoding="UTF-8" standalone="no"?>
<svg
   width="80pt"
   height="80pt"
   viewBox="0 0 199.74217 199.73831"
   version="1.1"
   id="svg29"
   xmlns="http://www.w3.org/2000/svg"
   xmlnsSvg="http://www.w3.org/2000/svg">
  <defs
     id="defs33" />
  <g
     id="mtg-green"
     transform="translate(-0.43748522,-138.51172)">
    <path
       style="fill:current;fill-opacity:1;fill-rule:evenodd;stroke:none"
       d="m 65.703125,295.10547 c 29.742188,-3.51953 33.203125,-38.32031 8.96875,-32.96485 -6.8125,1.875 -12.136719,6.625 -24.828125,7.09375 -18.945312,-0.78515 -29.613281,-17.97656 -14.183594,-30.85546 -10.355468,-8.79688 -7.089843,-23.05469 8.867188,-27.66407 -9.59375,-16.77343 7.378906,-35.84375 28.726562,-24.11718 9.125,-22.76563 32.308594,-24.38672 45.750004,-8.15625 12.69921,-4.1875 26.43359,-3.2461 30.35546,14.82421 8.0586,1.23829 13.45704,5.35938 9.19141,14.8125 11.91797,5.33204 14.53516,15.74219 8.43359,26.8125 9.92579,11.98829 7.11329,27.19922 -17.25,27.28516 -36.38281,-17.07031 -47.93749,23.24219 -9.09375,31.96875 -14.31249,-0.57812 -17.42578,1.3125 -13.08984,14.95313 -20.6875,-10.61719 -32.753905,-12.10938 -44.285155,-0.23438 1.035156,-10.26953 -2.179687,-15.21484 -17.5625,-13.75781 z m 22.445313,-44.1836 c -4.824219,-0.0195 -10.355469,-0.54296 -13.097657,-1.3125 -3.042968,-0.85546 -5.511718,-3.22656 -4.472656,-5.79296 1.039063,-2.56641 4.3125,-2.23829 7.242188,-1.05469 2.925781,1.18359 6.507812,4.00781 10.328125,8.16015 z m 1.597656,-16.76171 c -3.890625,-1.50782 -6.957031,-2.17188 -8.933594,-3.64063 -2.195312,-1.63281 -3.925781,-5.06641 -2.289062,-6.81641 1.632812,-1.7539 5.019531,-0.35546 7.019531,1.50782 2,1.86328 2.402344,4.40625 4.203125,8.94922 z m 9.546875,-10.65625 c -1.242188,-2.10547 -2.285156,-3.16016 -2.488281,-4.61329 -0.222657,-1.60937 0.648437,-3.89843 2.074218,-3.9375 1.425784,-0.0391 2.601564,1.75391 2.648434,3.37891 0.043,1.62891 -0.91796,2.64844 -2.234371,5.17188 z m 15.429691,8.52343 c 2.57422,-2.625 5.39843,-3.52343 6.44922,-5.42187 1.16406,-2.10547 1.11328,-5.86328 -0.83594,-6.67188 -1.94922,-0.8125 -4.63672,1.40235 -5.07813,3.76563 -0.5,2.64453 -0.74218,4.03515 -0.53515,8.32812 z m 2.50781,15.74219 c 4.80469,-0.41406 10.13281,-0.17969 12.70703,-1.54687 2.78906,-1.48047 4.57031,-3.94922 3.32422,-6.42188 -1.2461,-2.47266 -4.48438,-1.875 -7.30078,-0.45312 -2.82031,1.42187 -5.26563,3.96875 -8.73047,8.42187"
       id="path16" />
    <path
       style="fill:current;fill-opacity:1;fill-rule:evenodd;stroke:none"
       d="m 100.30859,138.51172 c 55.15625,0 99.8711,44.71094 99.8711,99.87109 0,55.15625 -44.71485,99.86719 -99.8711,99.86719 -55.156246,0 -99.87109,-44.71094 -99.87109,-99.86719 0,-55.16015 44.714844,-99.87109 99.87109,-99.87109 z m 0,10.09375 c 49.58203,0 89.77344,40.19531 89.77344,89.77734 0,49.57813 -40.19141,89.77344 -89.77344,89.77344 -49.582027,0 -89.773434,-40.19531 -89.773434,-89.77344 0,-49.58203 40.191407,-89.77734 89.773434,-89.77734"
       id="path14" />
  </g>
</svg>
