<?xml version="1.0" encoding="UTF-8" standalone="no"?>
<svg
   width="80pt"
   height="80pt"
   viewBox="0 0 199.74217 199.73831"
   version="1.1"
   id="svg29"
   xmlns="http://www.w3.org/2000/svg"
   xmlnssvg="http://www.w3.org/2000/svg">
  <defs
     id="defs33" />
  <g
     id="mtg-blue"
     transform="translate(-305.82031,-133.04687)">
    <path
       style="fill:current;fill-opacity:1;fill-rule:evenodd;stroke:none"
       d="m 405.69141,133.04687 c 55.15625,0 99.87109,44.71094 99.87109,99.86719 0,55.15625 -44.71484,99.8711 -99.87109,99.8711 -55.15625,0 -99.8711,-44.71485 -99.8711,-99.8711 0,-55.15625 44.71485,-99.86719 99.8711,-99.86719 z m 0,10.09375 c 49.58203,0 89.77343,40.19532 89.77343,89.77344 0,49.58203 -40.1914,89.77344 -89.77343,89.77344 -49.58204,0 -89.77344,-40.19141 -89.77344,-89.77344 0,-49.57812 40.1914,-89.77344 89.77344,-89.77344"
       id="path24" />
    <path
       style="fill:current;fill-opacity:1;fill-rule:evenodd;stroke:none"
       d="m 424.92578,158.14453 c -6.57422,28.79297 -5.91797,40.55859 5.51563,52.20703 22.38671,22.80469 27.72265,37.34766 26.60937,54.29297 -1.70703,26.00391 -25.48047,42.17969 -50.125,43 -29.90234,1 -46.51953,-18.65625 -51.12109,-39.5 -3.64063,-16.47656 -1.99219,-34.78516 14.22656,-60.22266 13.47266,-21.13671 31.70312,-34.36718 54.89453,-49.77734 z m 9.96484,82.66797 c 4.77344,-1.10938 11.0586,5.73437 13.26172,14.38672 2.19922,8.65234 -2.32422,15.37109 -8.89453,15.50781 -6.57422,0.13672 -11.07812,-4.58984 -11.51172,-13.13281 -0.43359,-8.54297 2.375,-15.65235 7.14453,-16.76172"
       id="path26" />
  </g>
</svg>
