<?xml version="1.0" encoding="UTF-8" standalone="no"?>
<svg
   width="80pt"
   height="80pt"
   viewBox="0 0 199.7422 199.74217"
   version="1.1"
   id="svg29"
   xmlns="http://www.w3.org/2000/svg"
   xmlnssvg="http://www.w3.org/2000/svg">
  <defs
     id="defs33" />
  <g
     id="mtg-red"
     transform="translate(-63.238281,-331.71875)">
    <path
       style="fill=current;fill-opacity:1;fill-rule:evenodd;stroke:none"
       d="m 163.10937,331.71875 c 55.15625,0 99.8711,44.71484 99.8711,99.87109 0,55.15625 -44.71485,99.8711 -99.8711,99.8711 -55.15624,0 -99.871089,-44.71485 -99.871089,-99.8711 0,-55.15625 44.714849,-99.87109 99.871089,-99.87109 z m 0,10.09766 c 49.58204,0 89.77344,40.1914 89.77344,89.77343 0,49.58203 -40.1914,89.77344 -89.77344,89.77344 -49.58203,0 -89.773432,-40.19141 -89.773432,-89.77344 0,-49.58203 40.191402,-89.77343 89.773432,-89.77343"
       id="path6" />
    <path
       style="fill:current;fill-opacity:1;fill-rule:evenodd;stroke:none"
       d="m 124.17188,380.74609 c -5.5,-1.30078 -8.48047,5.3086 -15.82813,9.82422 5.89063,-13.01172 11.19531,-20.19922 22.80078,-20.92578 17.625,-1.10156 14.91406,16.73828 6.60156,15.82422 -6.97265,-0.76563 -10.40234,0.0508 -15.60156,7.5 -0.71094,-2.75781 -0.0195,-5.32813 1.80078,-6.97266 1.82032,-1.64453 2.85157,-4.39843 0.22657,-5.25"
       id="path8" />
    <path
       style="fill:current;fill-opacity:1;fill-rule:evenodd;stroke:none"
       d="M 165.32422,408.80859 C 161.26953,408.13281 154.29297,406 147.3125,388.26953 c 2.58594,1.93359 7.35937,4.25781 12,4.19922 4.64453,-0.0586 18.84766,-6.73047 19.94922,6.15234 0.5664,6.6211 -5.16406,11.64844 -13.9375,10.1875"
       id="path10" />
    <path
       style="fill:current;fill-opacity:1;fill-rule:evenodd;stroke:none"
       d="m 189.42969,365.77344 c -21.90235,-9.79688 -32.19532,-8.73828 -56.55078,-3 15.96484,1.34375 32.60156,2.3164 33.30078,12 0.10156,2.45312 -2.35157,8.35156 -15,3.30078 1.69922,4.60156 5.875,8.07422 16.80078,8.40234 8.80078,0.0703 13.04687,-3.6289 19.05078,-2.47656 6.35937,1.21484 15.03125,7.05078 9.89844,15.14844 -2.25,-1.97266 -7.5,-9.27344 -17.47657,-8.39844 13.57813,9.92578 6.95704,18.5625 12.60157,21.07422 8.58593,3.8164 9.67578,7.65234 9.67578,13.65234 0.0547,4.28906 -1.63281,9.97266 -4.5,9.89844 -3.15235,-0.0977 -4.5,-3.19922 -2.69922,-15.59766 -2.40234,6.375 -7.22266,10.16797 -10.22266,14.96875 -4.125,6.22657 -4.85156,13.45313 -9.1289,18.32813 -2.11719,2.3164 -6.82422,2.30078 -4.94922,-3.75 2.65234,-7.1211 9.27734,-10.42188 14.25,-18 3.875,-6.02344 5.27344,-11.07422 5.10156,-17.84766 -3.8125,4.77344 -6.72656,9.77344 -20.69922,10.72266 -10.10156,-0.082 -13.11719,-2.42578 -21.1875,-2.77735 -7.82422,-0.72656 -41.74609,3.46485 -44.69531,34.16407 -2.33594,29.5039 31.91797,50.9375 56.73047,50.58984 9.13672,0.16406 15.57422,-0.72266 23.69922,-5.69922 8.10547,-4.89062 10.5,-8.89844 24.30078,-11.10156 -3.48047,-2.30078 -6.1875,-3.36328 -13.05078,-3.29688 -3.21094,-0.0625 -5.75,1.29688 -11.54688,1.04688 -4.53906,-0.33594 -5.28125,-5.86328 0,-8.09766 5.27344,-2.23437 12.60547,0.84375 21.07422,0.98047 21.87891,0.47266 21.53125,-18.27734 33.52344,-23.48047 -6.15625,-0.95703 -10.70703,0.72266 -15.14844,3.29688 -15.04687,8.71875 -19.76562,2.60547 -13.19922,-1.79688 3.34766,-1.75 6.69922,-2.82812 10.04688,-5.25 7.07812,-5.80078 15.16015,-21.89062 15.30078,-33.45312 0.125,-10.13672 -4.80078,-24.48828 -14.13672,-32.52344 -4.65234,-4 -4.66016,-6.23437 -6.26172,-12.02734 -1.69922,6.42578 0.125,13.7539 3.97266,20.17578 2.45312,4.71484 -1.77344,9.42578 -3.07422,5.02734 -3.19922,-10.5 -5.19922,-22.57422 -25.80078,-34.20312"
       id="path12" />
  </g>
</svg>
